<svg xmlns="http://www.w3.org/2000/svg" style="display: none;"><symbol id="unicorn" viewBox="0 0 512 512"><title>unicorn</title><g><path d="m104.727 501.563s-36.069-22.953-36.069-55.743 28.691-46.726 28.691-46.726-50.503-23.755-34.74-94.354 66.457-75.384 66.457-75.384-6.197-97.715 85.179-45.273c0 0-5.827-131.284 81.459-76.73l-8.089 232.271z" fill="#ccf3e2"/><path d="m98.686 399.67s-43.439-21.933-36.852-66.397c4.941 20.585 45.506 95.688 127.729-10.027 3.055-3.928 33.34 71.777 38.192 71.141l-121.691 107.752s-36.069-22.953-36.069-55.743 28.691-46.726 28.691-46.726z" fill="#b1b6e1"/><path d="m104.697 501.828c11.974-43.585 33.516-89.022 67.692-116.682-6.423-18.198-9.895-37.828-9.895-67.556l-1.091-59.148c0-21.167 6.428-40.832 17.438-57.151-5.052-5.141-9.325-12.074-12.341-20.838-9.185-26.692 7.619-63.904 15.93-66.764s44.456 16.133 53.641 42.825c.363 1.055.684 2.096.987 3.131 8.5-2.288 17.436-3.516 26.658-3.516h63.141c4.715 0 9.245.359 13.598 1.02.646-5.802 2.428-12 5.526-18.451 12.092-25.181 49.798-39.7 57.639-35.935 7.841 3.766 20.086 42.27 7.994 67.451-4.001 8.332-9.042 14.689-14.65 19.168 11.12 12.607 18.488 26.408 22.26 36.78 9.102 25.032 13.654 59.166 13.654 59.166 24.658 23.212 32.502 54.974 22.636 82.599-8.141 22.794-24.208 39.507-45.589 50.473-18.793 9.639-49.289 13.094-65.99 11.642 9.281 20.417 14.182 49.808 17.475 71.787h-256.713z" fill="#fff"/><path d="m390.836 161.913c4.127 4.492 8.046 9.168 11.923 13.882 1.551.801 3.094 1.614 4.633 2.438 3.51-5.516 6.153-12.324 7.564-20.43 4.792-27.52-5.745-58.796-14.314-60.288-3.822-.666-12.373 3.793-21.099 11.369.627-.057 1.184-.039 1.653.066 7.435 1.655 14.2 28.853 9.64 52.963z" fill="#e1bdfc"/><path d="m432.008 276.738s-1.337-47.779-16.305-69.829c-8.5 3.499-17.386 6.143-26.312 7.782 10.014 23.257 10.741 67.783 10.741 67.783 24.078 23.325 23.222 44.141 20.316 57.562-4.633 21.394-13.92 36.87-33.847 49.166-14.141 8.726-36.721 9.126-49.674 14.039-10.04 3.808-18.717 9.63-17.971 20.651.665 9.823 1.041 17.347.289 31.268-.698 12.908-11.022 23.853-23.936 23.25l-179.073-.443c-6.69 11.367-6.153 10.485-11.12 23.862h256.715c.045-21.461-3.32-39.957-12.957-71.95l2.528-1.218c16.466-3.142 60.791-11.207 76.256-25.591 17.595-16.365 26.184-33.228 30.254-57.088 3.587-21.033 2.491-41.348-25.904-69.244z" fill="#e1bdfc"/><path d="m267.393 173.147c.033-.455.087-.912.187-1.373.639-17.749 6.032-33.117 18.367-45.007.307-19.862 5.578-35.321 18.157-44.492 6.353-21.958 16.203-45.384 28.501-69.838 1.538-3.769 7.162-2.553 7.004 1.516 1.512 22.013 1.609 42.465-2.267 58.528 5.316 13.071 5.402 26.246-1.534 39.593 4.298 13.22 4.487 26.954-1.603 41.385 6.435 13.892 1.625 26.583-.112 32.595-7.136 20.175-68.182 7.275-66.7-12.907z" fill="#f6e06e"/><path d="m267.393 173.147c.033-.455.087-.912.187-1.373.454-12.605 3.323-24 9.356-33.81-.594 3.251-.955 6.615-1.084 10.091-.088.394-.136.784-.165 1.172-1.305 17.22 52.432 28.227 58.715 11.012.295-.99.691-2.194 1.097-3.576 4.407 12.613.198 23.845-1.405 29.391-7.137 20.175-68.183 7.275-66.701-12.907z" fill="#dda86a"/><path d="m421.461 192.216c-14.187-8.192-24.71-21.268-30.504-36.591-1.646-4.352-3.966-8.552-6.99-12.456-14.443-18.65-40.79-23.937-61.298-12.283-24.46 13.899-31.572 45.33-16.198 68.272 13.237 19.752 34.566 27.99 54.299 27.362 11.496-.366 38.005-7.438 58.133-13.279 9.744-2.828 11.344-15.952 2.558-21.025z" fill="#ccf3e2"/><path d="m306.472 199.157c13.237 19.752 34.566 27.99 54.299 27.362 11.496-.366 38.005-7.438 58.133-13.279 9.743-2.827 11.344-15.951 2.557-21.024-14.187-8.192-24.709-21.268-30.504-36.591-1.646-4.353-3.966-8.552-6.99-12.456-14.443-18.649-40.79-23.936-61.298-12.283-24.46 13.899-31.571 45.329-16.197 68.271zm35.808-69.226c16.506-5.538 34.7 1.741 42.333 16.923 1.598 3.179 2.645 6.473 3.184 9.786 1.897 11.662 7.534 22.36 16.537 30.077 5.575 4.779 2.472 13.89-4.967 14.596-15.368 1.459-35.516 2.939-43.852 1.662-14.309-2.192-28.45-10.896-35.05-26.701-7.666-18.357 2.129-39.738 21.815-46.343z" fill="#b1b6e1"/><path d="m298.772 432.89c12.19-7.936 21.333-31.556 15.339-40.195-5.994-8.64-30.403-5.868-42.355 2.423-11.951 8.291 20.883 41.764 27.016 37.772z" fill="#a1e8c3"/><path d="m82.082 33.688 8.354 23.49c.358 1.006 1.066 1.803 1.959 2.205l20.87 9.403c2.949 1.328 2.949 6.026 0 7.354l-20.87 9.403c-.893.403-1.602 1.2-1.959 2.205l-8.354 23.49c-1.18 3.319-5.354 3.319-6.534 0l-8.354-23.49c-.358-1.006-1.066-1.803-1.959-2.205l-20.87-9.403c-2.948-1.328-2.948-6.026 0-7.354l20.87-9.403c.894-.403 1.602-1.2 1.959-2.205l8.354-23.49c1.18-3.319 5.354-3.319 6.534 0z" fill="#fbf2aa"/><path d="m215.089 3.884 6.197 17.425c.265.746.791 1.337 1.453 1.636l15.481 6.975c2.187.985 2.187 4.47 0 5.455l-15.481 6.975c-.663.299-1.188.89-1.453 1.636l-6.197 17.425c-.875 2.462-3.971 2.462-4.847 0l-6.197-17.425c-.265-.746-.791-1.337-1.453-1.636l-15.481-6.975c-2.187-.985-2.187-4.47 0-5.455l15.481-6.975c.663-.299 1.188-.89 1.453-1.636l6.197-17.425c.875-2.462 3.971-2.462 4.847 0z" fill="#fbf2aa"/><ellipse cx="61.638" cy="186.984" fill="#f7e16e" rx="12.395" ry="12.395" transform="matrix(.123 -.993 .993 .123 -131.491 225.242)"/></g><g><g fill="#3c122c"><path d="m442.453 280.457c-1.442-9.571-5.935-36.503-13.669-57.772-.761-2.092-1.639-4.208-2.575-6.331 3.832-2.803 6.377-7.071 6.981-12.056.863-7.123-2.462-13.778-8.677-17.366l-3.051 5.284 3.051-5.284c-2.663-1.538-5.199-3.298-7.606-5.234 1.383-2.236 2.681-4.592 3.877-7.083 8.391-17.475 6.296-37.616 4.299-48.067-1.222-6.395-6.062-27.673-17.059-32.954-10.999-5.281-30.63 4.246-36.384 7.292-6.188 3.275-15.662 9.164-23.815 17.777-1.34-.043-2.682-.032-4.024.025-.019-.097-.031-.194-.05-.291.402-.505.776-1.038 1.085-1.632 7.506-14.443 8.543-29.58 3.097-45.04 3.013-14.496 3.583-32.632 1.852-58.09-.078-6.411-4.558-11.948-10.887-13.317-6.395-1.384-12.825 1.883-15.5 7.799-12.717 25.314-21.936 47.671-28.134 68.22-4.65 4.047-7.962 8.758-10.313 13.797-18.661-8.118-34.809-8.317-48.146-.533-9.11 5.317-16.381 14.119-21.764 26.288-.113-.079-.237-.168-.348-.245-5.409-3.724-23.963-15.563-35.569-11.57-11.609 3.994-18.946 24.744-20.918 31.008-1.877 5.961-4.167 15.211-4.504 25.546-3.296 1.052-6.415 2.479-9.344 4.302-20.945 13.031-24.871 41.676-25.46 56.246-5.918 1.739-14.094 4.988-22.892 11.008-14.87 10.176-34.457 30.641-43.322 70.343-8.966 40.156 2.196 66.658 13.138 81.819 4.545 6.298 9.443 11.211 13.813 14.903-9.7 8.692-21.146 23.777-21.146 46.573 0 33.651 30.756 57.364 38.871 63.035 1.229 1.286 2.803 2.273 4.644 2.779.902.248 1.808.366 2.7.366 4.465 0 8.561-2.964 9.8-7.478 13.542-49.293 36.372-88.88 64.284-111.471 3.346-2.708 4.625-7.23 3.193-11.29-6.53-18.5-9.315-37.691-9.315-64.172 0-.063 0-.125-.002-.188l-1.089-59.052c.018-18.412 5.445-36.174 15.699-51.371 2.705-4.008 2.213-9.367-1.177-12.816-4.208-4.283-7.566-10.008-9.978-17.019-6.707-19.491 3.958-46.691 9.772-53.405 8.714 1.714 33.859 16.593 40.565 36.08.274.798.542 1.649.843 2.678 1.552 5.309 7.06 8.405 12.406 6.968 7.199-1.938 14.633-2.983 22.124-3.135-.142 1.564-.26 3.142-.326 4.754-.073.426-.126.875-.167 1.345-.004.033-.006.066-.009.099-.005.057-.012.11-.016.167 0 .003-.001.004-.001.006-.004.058-.002.114-.006.172-.004.089-.009.177-.009.267-.704 14.775 18.017 24.016 34.411 27.454 1.628.341 3.308.619 5.004.865.232.365.453.736.694 1.097 12.71 18.965 33.973 30.102 57.236 30.101.772 0 1.55-.012 2.326-.037 8.155-.26 23.577-3.499 45.932-9.641 1.296 2.805 2.206 5.103 2.771 6.658 8.607 23.671 13.086 56.705 13.131 57.036.31 2.317 1.408 4.457 3.11 6.059 21.079 19.843 28.754 47.345 20.03 71.774-6.961 19.491-20.639 34.579-40.653 44.845-17.203 8.824-46.173 11.805-60.467 10.559-3.6-.311-7.098 1.309-9.185 4.261-2.087 2.951-2.451 6.789-.954 10.08 8.314 18.29 13.095 45.186 16.676 69.085.832 5.555 6.013 9.384 11.564 8.551 5.555-.832 9.383-6.01 8.551-11.564-2.962-19.77-6.746-41.578-12.723-59.984 17.264-.816 39.67-4.604 55.822-12.889 24.768-12.704 41.767-31.579 50.525-56.102 11.105-31.106 2.419-65.618-22.643-90.892zm-291.218-21.828 1.089 59.051c.006 25.785 2.505 45.443 8.262 64.153-31.649 28.213-50.394 68.689-61.261 102.434-9.065-8.419-20.497-22.242-20.497-38.447 0-25.775 22.079-37.134 22.965-37.578 3.523-1.711 5.78-5.281 5.755-9.198-.024-3.917-2.267-7.458-5.812-9.125-1.758-.855-42.893-21.644-29.202-82.963 13.829-61.936 55.788-67.286 57.487-67.475 5.456-.515 9.522-5.28 9.195-10.751-.588-9.841 1.125-37.388 15.917-46.553.345-.214.703-.401 1.059-.592.216.727.443 1.453.692 2.177 2.393 6.956 5.548 13.12 9.415 18.412-9.878 17.059-15.065 36.356-15.065 56.268-.001.062 0 .124.001.187zm247.779-146.274c4.891 7.28 12.112 34.832 3.586 53.111-2.333-3.75-4.334-7.764-5.935-11.999-1.896-5.016-4.546-9.738-7.873-14.034-4.79-6.186-10.747-11.056-17.35-14.532 10.413-7.579 22.225-12.097 27.572-12.546zm-68.614-71.584c-.081 10.177-.832 20.573-2.943 29.323-.01.044-.015.087-.025.131-.046.2-.08.402-.114.604-.008.048-.02.096-.027.143l-10.072 3.406c3.527-10.579 7.897-21.725 13.181-33.607zm-20.303 49.721c.009-.007.017-.014.026-.021.254-.187.499-.386.736-.596.061-.054.118-.112.177-.167.169-.157.333-.319.491-.487.017-.019.037-.036.055-.054l18.47-6.246c2.005 8.471.932 16.382-3.267 24.463-.251.483-.447.98-.614 1.48l-26.292 8.798c.324-14.146 3.403-22.201 10.218-27.17zm-46.38 55.466c-6.797 0-13.568.611-20.224 1.822-3.189-6.839-7.584-12.802-12.185-17.804 3.457-10.04 8.492-18.583 15.76-22.817 8.062-4.698 19.094-3.647 32.852 3.044-.408 4.453-.469 8.843-.39 12.975.009.439.054.869.117 1.293-5.838 6.169-10.277 13.354-13.319 21.488h-2.611zm23.127-11.254c.459-.043.918-.119 1.373-.272l41.821-13.994c.22.152.457.284.69.421-3.799 1.132-7.515 2.699-11.074 4.721-12.883 7.321-21.933 19.137-25.623 33.355l-19.775 5.827c1.49-12.075 5.642-21.992 12.588-30.058zm-11.928 42.587 17.385-5.123c-.03 5.279.703 10.534 2.187 15.588-9.669-2.582-16.695-6.735-19.572-10.465zm85.661 43.129c-19.929.639-38.262-8.584-49.035-24.66-6.437-9.604-8.604-21.569-5.946-32.828 2.695-11.413 9.829-20.91 20.089-26.74 6.392-3.632 13.434-5.377 20.422-5.377 12.56 0 24.943 5.638 33.037 16.09 2.585 3.337 4.639 6.997 6.106 10.878 6.417 16.97 18.194 31.075 33.161 39.717 2.87 1.658 2.764 4.498 2.664 5.329-.101.833-.678 3.624-3.871 4.551-28.054 8.14-48.164 12.771-56.627 13.04z"/><path d="m271.623 386.386c-18.103 9.486-39.404 26.014-64.069 45.152l-6.948 5.387c-2.665 2.063-3.152 5.896-1.089 8.56 2.063 2.665 5.896 3.153 8.561 1.089l6.958-5.394c17.644-13.69 33.525-26.004 47.483-35.162l24.617 33.092c-12.729 11.404-28.824 23.844-45.351 36.613l-6.967 5.387c-2.665 2.063-3.152 5.896-1.089 8.561 1.203 1.553 3.006 2.367 4.829 2.367 1.305 0 2.62-.417 3.731-1.278l6.957-5.379c41.158-31.801 73.666-56.919 76.114-79.449.734-6.754-1.202-12.939-5.753-18.381-15.298-18.293-39.9-5.402-47.984-1.165zm41.605 18.227c-.795 7.317-7.267 16.19-17.151 26.071l-23.131-31.094c1.47-.84 2.924-1.65 4.342-2.394 21.249-11.133 28.774-6.819 32.958-1.817 2.406 2.878 3.354 5.811 2.982 9.234z"/><path d="m361.01 257.079c-2.294 0-4.492-1.3-5.53-3.515-1.43-3.051-.115-6.684 2.937-8.114l15.605-7.311c3.052-1.43 6.685-.114 8.114 2.937 1.43 3.051.115 6.684-2.937 8.114l-15.605 7.311c-.836.393-1.717.578-2.584.578z"/><path d="m293.182 254.859c-.72 0-1.452-.128-2.165-.399l-16.111-6.118c-3.151-1.197-4.735-4.72-3.539-7.871 1.197-3.151 4.721-4.734 7.871-3.539l16.111 6.118c3.151 1.197 4.735 4.721 3.539 7.871-.926 2.438-3.245 3.938-5.706 3.938z"/><path d="m387.275 321.801c-5.313-10.509-18.187-14.734-28.695-9.424-19.761 9.991-39.401 9.948-60.047-.133-10.582-5.164-23.396-.758-28.561 9.823-2.503 5.126-2.859 10.92-1.004 16.315 1.855 5.394 5.7 9.744 10.826 12.246 16.338 7.977 32.908 12.021 49.249 12.021 16.435 0 32.856-4.089 48.807-12.153 10.51-5.313 14.738-18.185 9.425-28.695zm-63.754 28.468c-5.146-.325-10.323-1.111-15.512-2.338v-18.92c5.206 1.526 10.372 2.49 15.512 2.892zm12.204-18.464c4.969-.477 9.923-1.489 14.875-3.03v18.995c-4.948 1.227-9.911 2.026-14.875 2.408zm-55.216 2.609c-.795-2.312-.643-4.796.43-6.992 1.585-3.247 4.85-5.137 8.24-5.137 1.346 0 2.712.298 4 .927.877.428 1.752.836 2.626 1.233v19.787c-3.555-1.317-7.109-2.837-10.657-4.57-2.196-1.072-3.844-2.937-4.639-5.248zm91.836 5.192c-3.165 1.6-6.347 3.014-9.541 4.262v-19.971c.427-.208.854-.412 1.282-.628 4.504-2.276 10.021-.465 12.299 4.039 2.276 4.503.464 10.02-4.04 12.298z"/><path d="m377.991 262.646c-13.221 0-23.977 10.756-23.977 23.977 0 2.895 1.245 8.211 9.58 11.279 3.9 1.436 9.013 2.227 14.397 2.227 14.79 0 23.977-5.175 23.977-13.506 0-13.221-10.756-23.977-23.977-23.977zm0 25.279c-.498 0-.978-.011-1.45-.027v-12.948c.476-.059.958-.1 1.45-.1 6.195 0 11.288 4.81 11.74 10.892-1.437.9-5.597 2.183-11.74 2.183z"/><path d="m270.148 262.646c-13.221 0-23.977 10.756-23.977 23.977 0 2.895 1.244 8.211 9.58 11.279 3.9 1.436 9.013 2.227 14.397 2.227 14.79 0 23.977-5.175 23.977-13.506 0-13.221-10.756-23.977-23.977-23.977zm0 25.279c-.489 0-.96-.011-1.424-.026v-12.953c.468-.057.941-.096 1.424-.096 6.195 0 11.288 4.81 11.74 10.892-1.437.9-5.597 2.183-11.74 2.183z"/></g><path d="m369.029 177.843c-3.751 0-7.358-2.083-9.129-5.675-5.139-10.422-13.099-13.075-13.436-13.183 0 0-10.653-4.798-7.295-13.628s12.942-5.91 12.942-5.91c1.701.475 16.886 5.179 26.031 23.727 2.484 5.037.414 11.135-4.624 13.619-1.445.712-2.979 1.05-4.489 1.05z" fill="#fff"/></g></symbol><symbol id="unicorn-1" viewBox="0 0 512 512"><title>unicorn-1</title><g><path d="m317.96 403.892s82.934-.813 90.981-65.472c7.397-59.434-55.024-62.415-55.024-62.415s5.131-80.905-70.525-37.484c0 0 4.825-108.699-67.446-63.53l6.698 192.313z" fill="#c2b2eb"/><path d="m374.875 387.631s39.8-23.281 26.748-81.734c-2.347-10.512-12.954-24.344-16.76-31.625 12.41 62.782-16.366 99.655-57.912 96.589-4.113-.304-8.179 30.593 4.017 31.406 14.806.986 43.907-14.636 43.907-14.636z" fill="#ae85ea"/><path d="m397.703 282.323c3.19 6.17 5.557 12.781 7.122 19.536 5.83 25.171.538 50.985-15.405 71.418-15.492 19.857-39.041 29.973-63.838 31.231-2.019.103-4.511-1.631-4.845-3.689-.172-1.057-.273-2.105-.344-3.148 2.62-9.042 4.402-18.868 5.257-30.858.11-.599.219-1.198.313-1.801 2.109-13.491 1.15-27.817.852-41.42-.019-.854-.039-1.709-.058-2.562l.387-20.944c0-17.526-5.322-33.808-14.439-47.319 4.183-4.257 7.721-9.997 10.218-17.253 7.605-22.1-6.308-52.911-13.19-55.279s-36.808 13.357-44.413 35.457c-.3.874-.566 1.736-.817 2.592-7.038-1.895-14.436-2.911-22.072-2.911h-52.278c-3.904 0-7.655.297-11.259.844-.535-4.804-2.011-9.935-4.576-15.277-10.011-20.849-41.231-32.871-47.723-29.753s-16.63 34.998-6.619 55.847c3.312 6.898 7.487 12.162 12.13 15.87-9.207 10.438-15.308 21.865-18.431 30.453-7.536 20.726-11.305 48.987-11.305 48.987-20.416 19.219-26.911 45.517-18.742 68.39 6.741 18.873 20.044 32.71 37.746 41.79 5.312 2.724 11.753 4.851 18.484 6.425h-14.246c-15.937 0-28.855 12.919-28.855 28.855v5.289c0 15.936 12.919 28.855 28.855 28.855h52.341c8.514 0 16.166-3.69 21.447-9.555 9.743 5.951 21.118 9.24 32.924 9.24h2.294c1.39.206 2.812.315 4.259.315h52.341c1.448 0 2.869-.109 4.259-.315h82.283c1.501.202 3.03.315 4.586.315h38.78c3.212 0 6.317-.453 9.265-1.282 18.287-3.22 34.503-14.359 43.673-30.896 10.176-18.351 15.877-38.887 15.877-60.575-.003-55.762-37.629-103.964-92.238-126.872z" fill="#fff"/><path d="m320.688 395.919c5.318-15.068 5.552-22.246 5.552-46.86l.903-48.973c0-17.526-5.322-33.808-14.438-47.319 4.183-4.257 7.721-9.997 10.218-17.253 7.605-22.1-6.308-52.911-13.19-55.279-3.247-1.118-4.174-.415-12.918 5.295 5.417 10.165 9.137 23.249 7.766 39.694-.863 10.355-14.254 21.311-17.757 25.362 7.633 12.855 13.476 56.1 13.476 72.775l-.229 12.434c0 17.067-4.679 31.192-8.644 47.095-2.312 9.274-3.604 17.608 3.328 24.189 9.321 8.848 23.476 1.373 25.933-11.16z" fill="#e1bdfc"/><path d="m239.387 229.465c-.028-.377-.072-.755-.155-1.137-.529-14.696-4.995-27.419-15.208-37.264-.254-16.445-4.618-29.244-15.033-36.838-5.26-18.181-13.415-37.577-23.598-57.823-1.273-3.121-5.93-2.113-5.799 1.255-1.252 18.226-1.333 35.159 1.877 48.459-4.402 10.822-4.473 21.731 1.27 32.782-3.559 10.946-3.715 22.318 1.327 34.265-5.327 11.502-1.345 22.01.093 26.988 5.909 16.704 56.453 6.023 55.226-10.687z" fill="#c1e5ef"/><path d="m239.387 229.465c-.028-.377-.072-.755-.155-1.137-.376-10.437-2.751-19.871-7.746-27.994.491 2.692.791 5.477.897 8.355.073.326.112.649.137.97 1.08 14.257-43.412 23.371-48.614 9.118-.244-.82-.572-1.817-.908-2.961-3.649 10.443-.164 19.743 1.163 24.335 5.909 16.705 56.453 6.024 55.226-10.686z" fill="#a6aaed"/><path d="m111.824 245.253c11.746-6.783 20.459-17.609 25.256-30.296 1.363-3.604 3.283-7.081 5.787-10.314 11.958-15.441 33.772-19.819 50.753-10.17 20.252 11.508 26.141 37.532 13.411 56.527-10.96 16.354-28.619 23.175-44.958 22.654-9.518-.303-31.467-6.159-48.132-10.995-8.067-2.339-9.392-13.205-2.117-17.406z" fill="#c2b2eb"/><path d="m193.62 194.474c-16.98-9.648-38.794-5.271-50.753 10.17-2.504 3.233-4.424 6.71-5.787 10.314-4.798 12.687-13.51 23.513-25.256 30.296-7.274 4.2-5.95 15.067 2.118 17.408 16.665 4.836 38.614 10.691 48.132 10.995 16.338.52 33.998-6.301 44.958-22.655 12.729-18.996 6.84-45.02-13.412-56.528zm1.825 37.58c-5.465 13.085-17.173 20.292-29.02 22.107-6.902 1.057-23.583-.169-36.308-1.376-6.159-.585-8.729-8.128-4.113-12.085 7.454-6.389 12.121-15.247 13.692-24.902.446-2.743 1.313-5.47 2.636-8.102 6.32-12.57 21.384-18.597 35.051-14.011 16.3 5.467 24.409 23.17 18.062 38.369z" fill="#ae85ea"/><path d="m155.234 234.984c-1.493 0-3.007-.334-4.437-1.039-4.978-2.455-7.023-8.48-4.569-13.458 7.885-15.991 21.096-20.08 22.576-20.494 0 0 9.613-3.632 12.756 5.685 3.324 9.854-7.275 13.657-7.139 13.612-.253.084-6.25 2.144-10.167 10.086-1.748 3.549-5.313 5.607-9.02 5.608z" fill="#fff"/><g fill="#9781dd"><path d="m245.174 501.95h6.106c2.955 0 5.35-2.147 5.35-4.794v-53.412c0-2.648-2.395-4.794-5.35-4.794h-6.106c-19.415 0-35.154 14.103-35.154 31.5 0 17.397 15.739 31.5 35.154 31.5z"/><path d="m382.397 501.95h5.942c2.875 0 5.206-2.331 5.206-5.206v-58.001c0-2.875-2.331-5.206-5.206-5.206h-5.942c-18.892 0-34.206 15.315-34.206 34.207 0 18.891 15.314 34.206 34.206 34.206z"/><path d="m171.654 438.95h-6.106c-2.955 0-5.35 2.146-5.35 4.794v53.412c0 2.648 2.396 4.794 5.35 4.794h6.106c19.415 0 35.154-14.103 35.154-31.5 0-17.397-15.739-31.5-35.154-31.5z"/></g><path d="m166.019 495.304 39.301.982c-.557-8.869-1.08-17.739-1.302-26.622l-38.631 9.266c.042 5.467.315 10.921.632 16.374z" fill="#8962de"/><path d="m155.373 481.333-51.747 12.412 52.328 1.307c-.264-4.57-.492-9.141-.581-13.719z" fill="#e1bdfc"/><path d="m251.147 469.37h-37.087c.22 9.066.757 18.117 1.326 27.167l35.761.894z" fill="#8962de"/><path d="m344.158 469.37h-82.961v28.312l91.545 2.287c-3.378-10.052-6.395-20.228-8.584-30.599z" fill="#e1bdfc"/><path d="m381.689 469.37h-27.259c2.356 10.457 5.518 20.72 9 30.866l24.593.614v-31.74c-2.204.171-4.33.26-6.334.26z" fill="#8962de"/><path d="m414.161 290.297c-1.298 3.018-2.513 6.076-3.622 9.181 21.677 22.989 37.05 53.65 39.546 82.632 1.678 19.486-1.371 45.004-9.505 60.885-7.102 13.867-25.584 21.697-42.507 24.798v33.309l21.312.533c22.633 0 43.7-12.069 54.676-31.863 10.176-18.351 15.877-38.887 15.877-60.575 0-49.961-30.217-93.832-75.777-118.9z" fill="#e1bdfc"/><path d="m469.927 137.738 8.256 23.213c.353.994 1.053 1.781 1.936 2.179l20.624 9.292c2.914 1.313 2.914 5.955 0 7.268l-20.624 9.292c-.883.398-1.583 1.185-1.936 2.179l-8.256 23.213c-1.166 3.279-5.291 3.279-6.457 0l-8.255-23.213c-.354-.994-1.053-1.781-1.936-2.179l-20.624-9.292c-2.914-1.313-2.914-5.955 0-7.268l20.624-9.292c.883-.398 1.583-1.185 1.936-2.179l8.255-23.213c1.166-3.28 5.29-3.28 6.457 0z" fill="#c1e5ef"/><path d="m324.553 68.397 6.124 17.219c.262.737.781 1.321 1.436 1.617l15.299 6.893c2.161.974 2.161 4.417 0 5.391l-15.299 6.893c-.655.295-1.174.879-1.436 1.617l-6.124 17.219c-.865 2.433-3.925 2.433-4.79 0l-6.124-17.219c-.262-.737-.781-1.322-1.436-1.617l-15.298-6.893c-2.161-.974-2.161-4.417 0-5.391l15.298-6.893c.655-.295 1.174-.879 1.436-1.617l6.124-17.219c.866-2.433 3.925-2.433 4.79 0z" fill="#c1e5ef"/><ellipse cx="423.344" cy="72.828" fill="#96b4eb" rx="12.248" ry="12.248" transform="matrix(.973 -.23 .23 .973 -5.408 99.212)"/><path d="m258.101 40.981c0 5.254-4.259 9.513-9.513 9.513s-9.513-4.259-9.513-9.513 4.259-9.513 9.513-9.513c5.253.001 9.513 4.26 9.513 9.513z" fill="#96b4eb"/></g><g fill="#3c122c"><path d="m448.431 301.81c-22.531-19.374-50.127-32.739-80.17-39.231-1.62-11.893-6.86-32.172-23.797-41.996-2.96-1.717-6.116-3.002-9.443-3.899-.517-7.778-2.234-14.652-3.674-19.227-2.167-6.883-8.293-23.267-18.343-26.725-9.381-3.232-23.011 4.533-29.613 8.907-4.104-8.582-9.84-16.079-17.854-20.757-11.168-6.519-24.543-6.578-39.885-.251-1.913-3.7-4.48-7.173-7.909-10.235-5.157-16.978-12.78-35.427-23.253-56.275-2.538-5.577-8.613-8.651-14.648-7.348-5.973 1.293-10.204 6.507-10.298 12.553-1.423 20.956-.966 35.985 1.481 48.059-4.376 12.742-3.592 25.229 2.324 37.178-6.76-6.937-14.441-11.688-19.511-14.371-6.326-3.348-22.069-10.636-31.594-6.066-9.525 4.574-13.676 21.419-15.019 28.448-1.69 8.85-3.459 25.919 3.691 40.81.894 1.862 1.861 3.629 2.883 5.321-1.599 1.209-3.261 2.325-4.991 3.324-5.491 3.171-8.429 9.05-7.666 15.343.471 3.888 2.277 7.282 5.022 9.729-.703 1.616-1.356 3.227-1.936 4.821-6.314 17.365-10.035 39.222-11.318 47.623-20.91 21.342-28.104 50.371-18.748 76.569 5.915 16.561 16.732 30.462 31.6 40.76-11.393 6.721-19.058 19.117-19.058 33.275v5.235c0 21.292 17.323 38.614 38.614 38.614h52.924c8.462 0 16.292-2.744 22.662-7.378 9.63 4.571 20.332 7.062 31.417 7.062h187.062c5.268 0 10.448-.571 15.471-1.651 6.404-1.231 11.837-3.273 16.663-5.755 13.063-6.372 24.099-16.588 31.332-29.633 11.372-20.506 17.138-42.527 17.138-65.449.001-40.659-18.309-78.796-51.556-107.384zm-99.548-30.053c-.008 4.961 3.653 9.193 8.555 9.953.234.036 23.625 3.868 35.578 23.175 11.854 19.149 1.104 48.923-3.936 57.029-6.767 10.888-16.793 19.234-29.799 24.809-7.657 3.281-18.808 5.46-27.414 6.767 3.048-12.982 4.416-27.003 4.421-44.336l.901-48.883c.001-.062.002-.124.002-.185 0-16.42-4.187-32.344-12.17-46.49 3.017-4.315 5.495-9.271 7.403-14.812.179-.521.322-1.045.482-1.567.484.224.962.46 1.425.727 11.853 6.828 14.523 26.743 14.552 33.813zm-93.489-95.522c5.413 3.153 9.266 9.544 11.983 17.157-3.402 3.806-6.639 8.232-9.134 13.252-5.212-.878-10.503-1.32-15.812-1.32h-1.751c-2.378-5.909-5.654-11.21-9.839-15.856.068-.441.118-.887.127-1.345.06-3.129.024-6.433-.232-9.795 10.383-4.858 18.662-5.585 24.658-2.093zm-34.668 21.743h.033l1.076.36c.323.108.649.186.974.238 5.183 6.141 8.396 13.602 9.73 22.585l-14.403-4.244c-2.965-10.894-9.675-20.076-19.148-26.223l16.028 5.363c1.608 1.169 3.573 1.88 5.71 1.921zm-.986 31.984 11.682 3.442c-2.34 2.294-6.753 4.877-13.083 6.761.844-3.335 1.321-6.757 1.401-10.203zm-23.949-84.098-4.434-1.499c-.028-.16-.057-.32-.093-.479-.01-.043-.014-.085-.024-.127-1.127-4.671-1.777-9.93-2.109-15.346 2.517 6.038 4.728 11.84 6.66 17.451zm-6.942 10.383 12.197 4.124c.578.749 1.264 1.414 2.024 1.975 4.929 3.594 7.295 9.456 7.738 19.584l-18.543-6.205c-.165-.494-.359-.984-.607-1.462-3.097-5.959-4.027-11.804-2.809-18.016zm-57.592 24.65c4.282.714 12.182 3.87 19.518 8.879-4.787 2.837-9.112 6.576-12.675 11.176-2.813 3.633-5.053 7.627-6.66 11.873-.972 2.569-2.129 5.035-3.437 7.391-5.03-13.761-.36-32.86 3.254-39.319zm-16.418 69.578c12.587-7.268 22.489-19.124 27.881-33.384 1.182-3.124 2.835-6.07 4.915-8.755 10.133-13.086 28.622-16.793 43.006-8.619 8.256 4.691 13.996 12.332 16.164 21.515 2.139 9.058.395 18.685-4.784 26.412-8.731 13.029-23.598 20.501-39.757 19.984-6.927-.22-23.492-4.041-46.642-10.758-2.011-.583-2.423-2.255-2.507-2.946-.084-.69-.083-2.405 1.724-3.449zm-8.033 222.911v-5.235c0-10.208 8.305-18.514 18.514-18.514h29.341v42.263h-29.341c-10.209 0-18.514-8.305-18.514-18.514zm59.915 18.514v-42.263h11.523c10.208 0 18.513 8.305 18.513 18.514v5.235c0 10.209-8.305 18.514-18.513 18.514zm71.864-.637c-10.209 0-18.514-8.305-18.514-18.514v-5.235c0-10.208 8.305-18.514 18.514-18.514h11.523v42.263zm119.656-23.866c0-13.129 10.681-23.81 23.811-23.81h4.984v47.621h-4.984c-13.13 0-23.811-10.682-23.811-23.811zm107.031-2.499c-8.858 15.666-25.695 26.34-43.856 26.31h-22.321v-47.621h1.254c5.55 0 10.05-4.499 10.05-10.05s-4.5-10.05-10.05-10.05h-18.298c-24.212 0-43.911 19.698-43.911 43.91 0 8.933 2.687 17.246 7.287 24.187h-20.229c3.13-5.576 4.924-11.999 4.924-18.835 0-5.551-4.5-10.05-10.05-10.05s-10.05 4.499-10.05 10.05c0 10.208-8.305 18.514-18.514 18.514h-29.34v-42.263h29.34c5.55 0 10.05-4.5 10.05-10.05 0-5.551-4.5-10.05-10.05-10.05h-52.923c-12.345 0-23.348 5.83-30.421 14.874-7.087-8.681-17.865-14.237-29.919-14.237h-34.438c-6.522-1.41-12.808-3.37-17.845-5.954-16.191-8.305-27.25-20.494-32.869-36.228-7.003-19.606-.808-41.713 16.165-57.692 1.681-1.583 2.767-3.698 3.073-5.987.036-.272 3.725-27.456 10.788-46.883.413-1.135 1.055-2.763 1.945-4.734 17.812 4.849 30.172 7.411 36.817 7.623.656.021 1.306.031 1.959.031 19.586 0 37.495-9.382 48.2-25.355.12-.179.228-.365.345-.546 1.275-.19 2.535-.409 3.762-.667 13.937-2.922 29.84-10.869 29.266-23.688-.091-1.332-.247-2.658-.303-3.983 5.682.202 11.315 1.043 16.78 2.514 5.278 1.422 10.726-1.638 12.259-6.887.207-.708.425-1.42.673-2.139 5.083-14.772 23.801-26.402 31.411-28.56 4.671 6.384 12.268 27.069 7.186 41.84-1.919 5.574-4.572 10.109-7.884 13.48-3.349 3.409-3.836 8.704-1.163 12.665 8.304 12.309 12.702 26.696 12.72 41.609l-.901 48.877c-.001.061-.002.123-.002.185 0 21.727-2.279 37.455-7.62 52.59-1.847 5.234.898 10.975 6.132 12.822 2.057.698 4.107.645 6.208.632 1.188-.103 29.274-2.612 46.291-9.905 16.863-7.227 29.969-18.221 38.951-32.672 7.49-12.047 18.446-44.699 7.731-70.784 39.871 23.703 66.005 63.025 66.005 107.455.001 19.472-4.916 38.213-14.615 55.702z"/><path d="m136.262 333.509c-3.037 0-5.649-2.288-5.987-5.377-.361-3.31 2.031-6.287 5.341-6.648l20.154-2.198c3.304-.357 6.288 2.03 6.648 5.341.361 3.31-2.031 6.287-5.341 6.648l-20.154 2.198c-.221.024-.442.036-.661.036z"/><path d="m264.37 333.509c-.219 0-.44-.012-.661-.036l-20.154-2.198c-3.311-.361-5.702-3.338-5.341-6.648.361-3.311 3.356-5.698 6.648-5.341l20.154 2.198c3.31.361 5.702 3.338 5.341 6.648-.337 3.089-2.95 5.377-5.987 5.377z"/><path d="m68.698 217.861h-26.211c-3.687 0-7.079-2.019-8.836-5.261s-1.598-7.186.416-10.275l15.477-23.755h-6.252c-5.55 0-10.05-4.499-10.05-10.05s4.5-10.05 10.05-10.05h24.795c3.687 0 7.079 2.019 8.836 5.261s1.598 7.186-.416 10.275l-15.477 23.756h7.668c5.55 0 10.05 4.499 10.05 10.05 0 5.55-4.5 10.049-10.05 10.049z"/><path d="m119.099 136.632h-30.838c-3.687 0-7.079-2.019-8.836-5.262-1.757-3.242-1.598-7.186.416-10.275l19.996-30.69h-10.628c-5.55 0-10.05-4.499-10.05-10.05 0-5.55 4.5-10.05 10.05-10.05h29.172c3.687 0 7.079 2.019 8.836 5.262 1.757 3.242 1.598 7.186-.415 10.275l-19.997 30.69h12.295c5.55 0 10.05 4.499 10.05 10.05-.001 5.55-4.501 10.05-10.051 10.05z"/><path d="m55.942 75.293h-36.82c-3.687 0-7.079-2.019-8.836-5.262-1.757-3.242-1.598-7.186.416-10.275l25.839-39.656h-16.286c-5.55 0-10.05-4.499-10.05-10.05s4.5-10.05 10.05-10.05h34.83c3.687 0 7.079 2.019 8.836 5.261s1.598 7.186-.416 10.275l-25.839 39.657h18.277c5.55 0 10.05 4.5 10.05 10.05-.001 5.55-4.501 10.05-10.051 10.05z"/><path d="m194.596 375.879c-10.097 0-18.311-8.696-18.311-19.384 0-3.33 2.7-6.03 6.03-6.03s6.03 2.7 6.03 6.03c0 4.039 2.804 7.324 6.251 7.324s6.252-3.285 6.252-7.324c0-3.33 2.7-6.03 6.03-6.03s6.03 2.7 6.03 6.03c0 10.688-8.215 19.384-18.312 19.384z"/></g></symbol><symbol id="eye-mask" viewBox="0 0 512 512"><title>eye-mask</title><g><path d="m440.925 250.832c-18.917 32.854-48.839 40.494-72.486 26.879s-32.063-43.329-13.146-76.183c18.916-32.854 71.418-48.683 81.649-42.793 10.23 5.89 22.899 59.242 3.983 92.097z" fill="#ccf3e2"/><path d="m437.901 154.312c-1.122-.646-2.81-1-4.918-1.086 6.542 11.055 14.646 31.357 2.602 52.276-13.902 24.146-35.894 29.76-53.273 19.754-15.723-9.053-22.281-27.791-13.094-49.16-1.382 1.841-2.658 3.746-3.795 5.722-17.423 30.26-12.396 69.536 9.384 82.076s49.34 5.504 66.763-24.757c17.423-30.26 5.754-79.4-3.669-84.825z" fill="#b1b6e1"/><path d="m72.079 247.668c17.005 33.441 46.183 42.529 70.252 30.289 24.069-12.239 33.913-41.171 16.909-74.611-17.005-33.441-68.075-51.783-78.488-46.487-10.414 5.295-25.677 57.368-8.673 90.809z" fill="#ccf3e2"/><path d="m150.286 196.232c-15.374-30.233-61.546-46.816-70.96-42.029-1.055.536-2.165 1.607-3.282 3.122 12.454.303 31.191 1.841 42.109 23.311 12.474 24.532 5.253 45.756-12.404 54.734-16.119 8.197-35.357 3.346-48.078-16.224.728 1.956 12.877 15.312 13.815 17.156 15.374 30.233 41.753 38.449 63.513 27.385 21.76-11.065 30.66-37.222 15.287-67.455z" fill="#b1b6e1"/><path d="m457.75 347.816c0-62.79-50.902-113.692-113.692-113.692h-88.556-.3-88.556c-62.79 0-113.692 50.901-113.692 113.692h.002c0 .065-.002.13-.002.195 0 62.898 40.99 104.016 88.933 104.016s66.41-20.444 83.522-50.236c6.627-11.537 18.289-17.258 29.942-17.21 11.652-.049 23.315 5.673 29.942 17.21 17.113 29.792 35.58 50.236 83.523 50.236 47.944 0 88.933-41.118 88.933-104.016 0-.065-.002-.13-.002-.195zm-293.805 32.983c-29.327 0-46.063-13.315-46.063-36.096s16.736-36.521 46.063-36.521 46.433 14.136 46.433 36.917-17.105 35.7-46.433 35.7zm180.397 0c-29.327 0-46.337-13.315-46.337-36.096s17.01-35.304 46.337-35.304 45.753 12.524 45.753 35.304c0 22.781-16.426 36.096-45.753 36.096z" fill="#faf1a9"/><path d="m457.75 347.816c0-56.336-40.978-103.094-94.753-112.113 35.952 15.67 61.088 51.517 61.088 93.24h-.002c.001.058.002.116.002.174 0 56.247-36.656 93.018-79.53 93.018s-59.388-18.283-74.691-44.924c-5.927-10.317-16.355-15.434-26.776-15.39-10.421-.043-20.85 5.073-26.776 15.39-15.303 26.642-31.818 44.924-74.691 44.924-42.875 0-79.53-36.771-79.53-93.018 0-.058.002-.116.002-.174h-.003c0-16.139 3.766-31.395 10.458-44.949-12.365 18.196-19.594 40.164-19.594 63.822v.001h.003c0 .065-.003.129-.003.195 0 62.898 40.99 104.016 88.933 104.016s66.41-20.444 83.523-50.236c6.627-11.537 18.289-17.258 29.942-17.21 11.653-.048 23.315 5.673 29.942 17.21 17.113 29.792 35.58 50.236 83.523 50.236 47.944 0 88.934-41.118 88.934-104.016 0-.065-.002-.13-.002-.195z" fill="#dfb5a7"/><path d="m289.641 232.649c.068-.484.114-.976.114-1.482 3.343-18.754 1.163-36.085-9.082-51.341 4.168-20.894 2.137-38.294-8.978-50.754-1.696-24.459-6.727-51.247-14.092-79.666-.761-4.3-6.932-4.296-7.687.005-6.562 22.738-11.288 44.159-10.856 61.877-8.529 12.502-11.598 26.297-7.344 41.859-7.495 12.889-10.799 27.246-7.676 43.753-9.887 13.11-7.714 27.505-7.252 34.2 2.923 22.768 69.844 23.044 72.853 1.549z" fill="#a1e8c3"/><path d="m361.244 275.042-23.121-16.999c-14.255-10.48-23.995-25.768-28.392-42.905-1.249-4.868-3.24-9.651-6.022-14.202-13.286-21.737-40.939-30.545-64.339-20.475-27.91 12.011-39.282 44.904-25.506 71.359 11.86 22.777 33.776 34.156 55.032 35.829 21.256 1.671 92.348-12.607 92.348-12.607z" fill="#ccf3e2"/><path d="m338.123 258.043c-14.255-10.48-23.995-25.768-28.393-42.906-1.249-4.868-3.24-9.651-6.022-14.202-7.9-12.925-20.88-21.278-35.025-23.81 10.449 4.297 22.234 13.245 25.337 24.757.994 3.687 1.401 7.38 1.283 10.985-.412 12.555.389 24.82 8.187 34.668 4.907 6.197-.008 15.258-7.878 14.509-16.273-1.55-37.536-4.042-45.978-7.081-14.486-5.215-27.581-17.316-31.501-35.44-2.206-10.2-.002-20.322 5.318-28.399-15.775 15.504-20.335 40.059-9.589 60.697 11.86 22.777 33.776 34.156 55.032 35.828 21.257 1.672 92.349-12.606 92.349-12.606z" fill="#b1b6e1"/><ellipse cx="44.222" cy="40.788" fill="#a2e9c4" rx="7.776" ry="7.775" transform="matrix(.16 -.987 .987 .16 -3.123 77.905)"/><path d="m150.747 17.542 8.255 23.212c.353.994 1.053 1.781 1.936 2.179l20.622 9.291c2.913 1.313 2.913 5.955 0 7.267l-20.622 9.291c-.883.398-1.583 1.185-1.936 2.179l-8.255 23.211c-1.166 3.279-5.29 3.279-6.457 0l-8.255-23.211c-.353-.994-1.053-1.781-1.936-2.179l-20.622-9.291c-2.914-1.313-2.914-5.955 0-7.267l20.622-9.291c.883-.398 1.583-1.185 1.936-2.179l8.255-23.212c1.167-3.279 5.291-3.279 6.457 0z" fill="#cdf4e3"/><path d="m437.225 14.275 6.123 17.218c.262.737.781 1.321 1.436 1.616l15.297 6.892c2.161.974 2.161 4.417 0 5.391l-15.297 6.892c-.655.295-1.174.879-1.436 1.616l-6.123 17.218c-.865 2.433-3.924 2.433-4.789 0l-6.123-17.218c-.262-.737-.781-1.321-1.436-1.616l-15.297-6.892c-2.161-.974-2.161-4.417 0-5.391l15.297-6.892c.655-.295 1.174-.879 1.436-1.616l6.123-17.218c.865-2.433 3.924-2.433 4.789 0z" fill="#cdf4e3"/><ellipse cx="353.31" cy="84.745" fill="#a2e9c4" rx="14.266" ry="14.266" transform="matrix(.122 -.993 .993 .122 226.031 425.053)"/></g><g><path d="m163.945 386.893c-28.994 0-52.581-18.926-52.581-42.191 0-23.264 23.588-42.19 52.581-42.19s52.581 18.926 52.581 42.19c.001 23.265-23.587 42.191-52.581 42.191zm0-72.321c-22.344 0-40.522 13.517-40.522 30.131s18.178 30.131 40.522 30.131 40.522-13.517 40.522-30.131c.001-16.614-18.177-30.131-40.522-30.131z" fill="#3c122c"/><path d="m344.342 386.823c-28.943 0-52.49-18.895-52.49-42.12s23.547-42.12 52.49-42.12c28.944 0 52.491 18.895 52.491 42.12s-23.547 42.12-52.491 42.12zm0-72.181c-22.294 0-40.431 13.485-40.431 30.061s18.137 30.061 40.431 30.061 40.432-13.485 40.432-30.061-18.138-30.061-40.432-30.061z" fill="#3c122c"/><g fill="#fff"><path d="m91.949 329.074c-1.225 0-2.469-.225-3.677-.701-5.165-2.033-7.704-7.867-5.671-13.032 1.154-2.93 2.447-5.822 3.843-8.594 2.496-4.957 8.541-6.95 13.495-4.454 4.957 2.497 6.951 8.539 4.455 13.496-1.121 2.225-2.16 4.552-3.089 6.913-1.559 3.957-5.348 6.372-9.356 6.372z"/><path d="m113.291 297.812c-2.731 0-5.454-1.107-7.436-3.287-3.735-4.105-3.435-10.461.67-14.196 10.196-9.276 23.612-15.895 38.799-19.142 5.431-1.164 10.767 2.298 11.929 7.726 1.16 5.427-2.298 10.768-7.726 11.928-11.547 2.469-22.014 7.567-29.476 14.355-1.926 1.752-4.347 2.616-6.76 2.616z"/><path d="m236.673 237.326c-5.55 0-10.049-4.499-10.049-10.049 0-16.071 7.35-25.107 8.188-26.085 0 0 5.632-6.694 13.534-1.255 7.175 4.939 1.724 14.337 1.724 14.337s.056-.059.151-.183c-.142.185-3.499 4.622-3.499 13.185 0 5.551-4.5 10.05-10.049 10.05z"/></g><path d="m487.568 436.04c.595-.539 4.463-3.646 5.157-4.219 12.25-9.954 19.275-24.716 19.275-40.5 0-26.154-19.343-47.871-44.474-51.61-1.718-26.435-11.77-50.632-27.554-69.984 3.49-4.154 6.725-8.785 9.661-13.883 12.591-21.868 11.804-48.43 10.214-62.318-.68-5.935-4.736-35.928-17.892-43.503s-41.131 3.975-46.606 6.367c-12.808 5.597-36.176 18.252-48.767 40.12-5.303 9.21-8.744 18.518-10.423 27.563h-17.066c-1.411-3.357-2.602-6.84-3.524-10.436-1.424-5.556-3.685-10.888-6.717-15.849-4.182-6.843-9.639-12.537-15.905-16.936-.542-1.033-1.103-2.057-1.699-3.067 3.628-21.869.352-39.556-9.778-52.664-1.837-22.952-6.444-48.495-14.068-77.959-1.38-6.521-6.92-11.03-13.642-11.03h-.01c-6.665.004-12.164 4.44-13.599 10.869-7.591 26.369-11.086 45.509-11.167 61.359-8.42 13.607-11.073 28.159-7.927 43.351-6.842 13.25-9.407 27.27-7.676 41.792-3.362 4.535-6.082 9.593-8.039 15.089-1.789 5.023-2.836 10.237-3.186 15.48h-25.38c-1.406-8.289-4.255-16.781-8.579-25.284-11.333-22.285-33.796-36.006-46.178-42.201-5.295-2.65-32.388-15.522-45.825-8.689-13.434 6.832-18.995 36.308-19.973 42.147-2.287 13.655-4.432 39.89 6.899 62.174 2.825 5.556 6.02 10.598 9.531 15.106-17.554 20.434-27.822 45.712-29.494 72.607-24.484 4.293-43.157 25.695-43.157 51.39 0 15.785 7.332 30.182 19.277 40.5 11.182 9.659 17.567 23.331 8.979 36.031-4.082 7.693-19.633 22.012-7.727 29.874 11.859 7.892 18.999-12 24.486-18.778 14.134-21.031 6.013-47.038-13.064-62.726-7.496-6.164-11.852-15.196-11.852-24.901 0-14.658 9.885-27.043 23.336-30.862 2.317 27.197 12.237 51.66 28.52 69.849 18.338 20.486 43.174 31.768 69.932 31.768 50.366 0 72.633-21.152 92.236-55.28 4.38-7.624 12.254-12.167 21.162-12.167h.109c8.876-.078 16.789 4.511 21.186 12.166 19.603 34.128 41.871 55.28 92.237 55.28 26.758 0 51.594-11.282 69.932-31.768 16.35-18.263 26.286-42.851 28.551-70.181 14.093 3.381 24.602 16.079 24.602 31.194 0 9.705-4.32 18.781-11.85 24.901-30.369 23.074-23.651 51.656-2.505 78.674 7.345 10.931 23.954-.122 16.757-11.096-10.506-15.281-23.597-31.329-6.736-47.76zm-123.567-229.499c9.271-16.102 27.339-26.198 37.285-30.783 13.356-6.157 24.379-8.219 29.239-8.219.504 0 .942.022 1.31.064 2.35 3.156 6.762 14.355 8.285 30.514 1.027 10.903 1.367 31.598-7.904 47.7-1.952 3.39-4.05 6.496-6.273 9.313-18.914-16.729-42.962-27.778-69.452-30.433 1.468-5.869 3.947-11.967 7.51-18.156zm-60.112 10.095c4.838 18.854 15.728 35.285 30.662 46.265l11.993 8.818c-21.481 3.991-62.483 11.073-77.177 9.919-21.664-1.705-40.415-13.893-50.157-32.602-5.839-11.213-6.753-24.477-2.509-36.393 4.302-12.08 13.2-21.542 25.052-26.643 5.763-2.48 11.817-3.663 17.809-3.663 15.484 0 30.542 7.903 39.001 21.744 2.408 3.936 4.199 8.16 5.326 12.555zm-54.801-104.857c.01-.202.018-.403.016-.604 0-.044.005-.088.003-.132-.267-10.914 1.747-23.607 4.406-35.528 3.406 15.685 5.78 30.085 7.198 43.499l-11.632-6.948c.008-.095.004-.192.009-.287zm-5.252 11.201 19.494 11.645c.03.045.656.903.88 1.153 7.076 7.944 9.659 19.215 7.854 34.286l-30.368-18.009c-.032-.293-.077-.586-.136-.879-.043-.212-.083-.425-.139-.634-.004-.015-.006-.029-.01-.044-2.649-9.689-1.86-18.749 2.425-27.518zm6.288 48.093c-4.446.74-8.856 2.006-13.138 3.848-1.139.49-2.248 1.023-3.343 1.576.736-4.355 2.038-8.631 3.955-12.852zm-164.738-5.101c9.644-.848 50.785 14.181 64.896 41.929 2.873 5.65 4.902 11.213 6.112 16.598-25.633 2.089-49.669 11.993-69.326 28.557-2.166-3.016-4.189-6.323-6.03-9.944-14.11-27.746-2.036-69.816 4.348-77.14zm362.314 182.039c0 53.57-33.912 93.967-78.883 93.967-41.296 0-57.592-15.219-74.81-45.192-8.011-13.946-22.391-22.254-38.419-22.254h-.39c-16.109 0-30.492 8.309-38.503 22.254-17.217 29.973-33.514 45.192-74.809 45.192-44.971 0-78.883-40.397-78.883-93.93.001-.102.001-.203 0-.305.04-57.115 46.518-103.57 103.643-103.57h37.695c1.045 3.583 2.429 7.081 4.173 10.43 11.676 22.422 34.071 37.022 59.907 39.055 1.276.101 2.713.148 4.29.148 25.414 0 86.954-12.298 89.72-12.854 2.341-.47 4.184-2.277 4.7-4.608s-.392-4.747-2.316-6.161l-23.121-16.999c-3.594-2.642-6.902-5.673-9.909-9.011h12.272c57.149 0 103.643 46.494 103.643 103.643h-.002z" fill="#3c122c"/></g></symbol></svg>